Coordinates
version=1
nRows=11
nColumns=40
inDegrees=yes

Units are S.I. units (second, meters, Newtons, ...)
Angles are in degrees.

endheader
time	pelvis_tilt	pelvis_list	pelvis_rotation	pelvis_tx	pelvis_ty	pelvis_tz	hip_flexion_r	hip_adduction_r	hip_rotation_r	knee_angle_r	knee_angle_r_beta	ankle_angle_r	subtalar_angle_r	mtp_angle_r	hip_flexion_l	hip_adduction_l	hip_rotation_l	knee_angle_l	knee_angle_l_beta	ankle_angle_l	subtalar_angle_l	mtp_angle_l	lumbar_extension	lumbar_bending	lumbar_rotation	arm_flex_r	arm_add_r	arm_rot_r	elbow_flex_r	pro_sup_r	wrist_flex_r	wrist_dev_r	arm_flex_l	arm_add_l	arm_rot_l	elbow_flex_l	pro_sup_l	wrist_flex_l	wrist_dev_l
     52.19000000	     -0.77040955	     -5.49105128	      4.76098125	      1.11238860	      0.92518141	      0.53049383	     12.37683921	      5.17086546	    -11.07203202	     23.38800256	     23.38800256	     13.42647242	     -9.26349237	     -3.16210786	     25.88387135	    -16.39211393	      4.07801291	     65.66341261	     65.66341261	     -3.01264212	    -18.99329000	      4.93724685	     -9.99655777	      4.61805981	      0.26105916	     19.75404721	    -19.61816206	     -6.03210019	     52.84121970	     45.33297889	      0.00000000	      0.00000000	     -6.86724566	    -10.54345189	     10.08965931	     28.93387024	     44.95622102	      0.00000000	      0.00000000
     52.21057143	     -0.81491868	     -5.58844418	      5.65799798	      1.10978753	      0.92291078	      0.53175462	     12.98033205	      5.34549877	    -11.16091003	     24.53993504	     24.53993504	     13.92421177	    -10.85197279	     -2.92724307	     28.51868167	    -16.02368376	      5.03026337	     68.06426831	     68.06426831	     -1.57741406	    -19.22545904	     10.79982917	    -10.33641501	      4.62109328	      0.42656472	     22.54063765	    -19.89939613	     -6.15887449	     53.82871199	     45.33085456	      0.00000000	      0.00000000	     -8.63531518	    -10.37727906	     10.64764712	     28.85366133	     44.88076905	      0.00000000	      0.00000000
     52.23114286	     -0.86467205	     -5.67164975	      6.58046271	      1.10708718	      0.92051250	      0.53294050	     13.63828753	      5.46447105	    -11.34445297	     25.80167897	     25.80167897	     14.58386963	    -12.24657302	     -2.38572742	     31.04305293	    -15.60898166	      5.84717649	     70.00863481	     70.00863481	     -0.20009701	    -19.39938614	     15.72661403	    -10.68108827	      4.61784493	      0.60201857	     25.49535555	    -20.28261726	     -6.14619022	     54.68730241	     45.32974108	      0.00000000	      0.00000000	    -10.46929045	    -10.28916368	     11.54307703	     28.89577064	     44.76280052	      0.00000000	      0.00000000
     52.25171429	     -0.90998578	     -5.75925386	      7.52713159	      1.10435949	      0.91820711	      0.53395936	     14.22437666	      5.57264466	    -11.60683561	     26.93176460	     26.93176460	     15.24590121	    -13.50374135	     -1.68075843	     33.32901695	    -15.15605647	      6.53682219	     71.28112741	     71.28112741	      1.05146170	    -19.51557338	     19.11810161	    -11.03400119	      4.63996917	      0.77694131	     28.53124991	    -20.69122907	     -6.18833744	     55.46335035	     45.33363262	      0.00000000	      0.00000000	    -12.20915661	    -10.20895986	     12.60366833	     28.84437972	     44.62808581	      0.00000000	      0.00000000
     52.27228571	     -0.99036364	     -5.81929609	      8.44043581	      1.10165714	      0.91598861	      0.53477078	     14.81407413	      5.59622668	    -11.95084360	     28.01212375	     28.01212375	     15.70555037	    -14.58671316	     -1.58725806	     35.31593548	    -14.72890404	      6.91633210	     71.71836138	     71.71836138	      1.80922264	    -19.58157124	     19.77422892	    -11.35732756	      4.64702486	      1.03490310	     31.37555082	    -21.15216515	     -6.47636578	     56.64059906	     45.32215077	      0.00000000	      0.00000000	    -13.68982199	     -9.94009857	     13.02229998	     28.33229706	     44.55565079	      0.00000000	      0.00000000
     52.29285714	     -1.04661149	     -5.78529467	      9.34953921	      1.09899259	      0.91429809	      0.53509210	     15.22705549	      5.50178945	    -12.30443968	     28.89021343	     28.89021343	     16.58379901	    -15.24127742	     -0.15944659	     36.95307085	    -13.99673054	      7.27398257	     71.39581449	     71.39581449	      3.55011858	    -19.60942951	     22.23744130	    -11.66508795	      4.60526575	      1.02110446	     34.63245737	    -21.36928591	     -6.43476421	     57.00665329	     45.34124325	      0.00000000	      0.00000000	    -15.29239701	     -9.86257619	     14.74594366	     28.39278624	     44.34327571	      0.00000000	      0.00000000
     52.31342857	     -1.19671787	     -5.71493882	     10.23954170	      1.09636778	      0.91297332	      0.53502669	     15.58105728	      5.29950723	    -12.79499403	     29.47740440	     29.47740440	     16.95422294	    -15.82075812	      0.00074012	     38.24086033	    -13.23014024	      7.40673053	     70.03764386	     70.03764386	      4.68184458	    -19.61247725	     22.11116477	    -11.88889644	      4.53599313	      1.18745900	     37.38821410	    -21.74766103	     -6.69600751	     58.19220492	     45.32839992	      0.00000000	      0.00000000	    -16.47456373	     -9.53466716	     15.26836234	     27.95995013	     44.26709657	      0.00000000	      0.00000000
     52.33400000	     -1.40498479	     -5.55810651	     11.06484172	      1.09384914	      0.91219586	      0.53453175	     15.82452798	      4.96787596	    -13.28662530	     29.81423598	     29.81423598	     17.26229514	    -16.15750230	      0.17815496	     39.11964607	    -12.30216383	      7.42325930	     67.72111700	     67.72111700	      5.91254254	    -19.58756659	     21.79187329	    -12.03782947	      4.38822859	      1.34848634	     40.04317929	    -22.07214721	     -6.91660320	     59.29718255	     45.31525654	      0.00000000	      0.00000000	    -17.52008438	     -9.14607015	     15.74268345	     27.57078315	     44.19381331	      0.00000000	      0.00000000
     52.35457143	     -1.68784535	     -5.34217859	     11.85262174	      1.09145927	      0.91203585	      0.53361418	     15.94403976	      4.53961788	    -13.83281018	     29.84397471	     29.84397471	     17.50149380	    -16.26236508	      0.39955376	     39.59895766	    -11.26411447	      7.38528947	     64.43786899	     64.43786899	      6.97834124	    -19.52185395	     21.04166902	    -12.07764845	      4.18225754	      1.36803788	     42.63074626	    -22.20222334	     -7.05992519	     60.45426964	     45.29704045	      0.00000000	      0.00000000	    -18.46831315	     -8.70132395	     16.29118532	     27.21552889	     44.11041188	      0.00000000	      0.00000000
     52.37514286	     -2.08725851	     -5.14038378	     12.58893245	      1.08925661	      0.91238170	      0.53236636	     15.98011254	      4.10211662	    -14.37976451	     29.53428863	     29.53428863	     17.67068971	    -16.09454890	      0.61932476	     39.71310328	    -10.20592616	      7.39657017	     60.20897996	     60.20897996	      7.43403117	    -19.39350993	     19.07047753	    -11.96189946	      3.99486824	      1.25589440	     45.13529293	    -22.14201731	     -7.07851972	     61.69809695	     45.27310059	      0.00000000	      0.00000000	    -19.31767747	     -8.26362627	     17.13374095	     26.94725053	     43.99177131	      0.00000000	      0.00000000
     52.39571429	     -2.50768559	     -4.92562072	     13.24997755	      1.08742383	      0.91323113	      0.53088139	     15.82469045	      3.66560681	    -14.98423175	     28.88292549	     28.88292549	     17.60302382	    -15.88980096	      0.52574567	     39.28612736	     -9.31289391	      7.24083923	     55.00716754	     55.00716754	      6.57272957	    -19.21422187	     13.90047346	    -11.74870681	      3.77541830	      1.35105557	     47.29973440	    -22.21470628	     -6.93989193	     63.07036871	     45.24626527	      0.00000000	      0.00000000	    -20.09434414	     -8.01040815	     18.71272742	     26.98884627	     43.79282098	      0.00000000	      0.00000000
